<svg xmlns="http://www.w3.org/2000/svg" viewBox="0 0 300 40"><defs><style>.a{fill:#c7d8e0;}.b{fill:#33546d;}.c{fill:#fff;}.d{fill:#29292a;}</style></defs><path class="a" d="M55.76,27.65c-1.85,0-2.58-.86-2.58-2.48V19.9c0-2.26-1-3.22-2.51-3.22s-2.31,1-2.31,2.84v8.13h-.91A2.28,2.28,0,0,1,45,25.17V19.9c0-2.26-1-3.22-2.53-3.22-1.32,0-2.31,1-2.31,2.91v8.06h-.91a2.34,2.34,0,0,1-2.46-2.48v-5.3c0-3.72,2-6.21,6.09-6.21A5.05,5.05,0,0,1,47,15.79a4.67,4.67,0,0,1,3.93-2.13c3.14,0,5.68,1.91,5.68,5.78v8.21Z"/><path class="a" d="M65.52,13.66c4.1,0,6.46,3.3,6.46,6.92C72,24.69,69.62,28,65.21,28c-4.1,0-6.46-3.27-6.46-6.9C58.75,17,61.11,13.66,65.52,13.66Zm-.31,3.05c-1.95,0-2.94,1.62-2.94,3.87,0,2.72,1,4.34,3.25,4.34,2,0,2.94-1.62,2.94-3.86C68.46,18.33,67.44,16.71,65.21,16.71Z"/><path class="a" d="M80.16,28c-3.37,0-6-2.23-6-6.21V14h.64c2,0,2.81.83,2.81,2.43v5c0,2.51,1.21,3.52,2.76,3.52,1.4,0,2.38-1,2.38-3.29V14h.61c2,0,2.82.83,2.82,2.43v5.12C86.15,25.78,84.14,28,80.16,28Z"/><path class="a" d="M100.06,27.65a2.26,2.26,0,0,1-2.49-2.23V20c0-2.31-1-3.32-2.76-3.32-1.47,0-2.48,1.12-2.48,3.07v7.9h-1a2.21,2.21,0,0,1-2.38-2.23v-5.9c0-2.89,1.9-5.86,6.16-5.86a5.66,5.66,0,0,1,5.88,6v8Z"/><path class="a" d="M104.87,11.81a2.39,2.39,0,0,1,1.6-.93h.78V14H112v1.39A1.8,1.8,0,0,1,110,17h-2.72v5.35c0,1.78.79,2.46,2.16,2.46a4.86,4.86,0,0,0,2.46-.48H112v1.22c0,1.39-1,2.28-3,2.28-3.44,0-5.12-1.88-5.12-5.07V14.53A3.44,3.44,0,0,1,104.87,11.81Z"/><path class="a" d="M119.06,27.88h-.68c-3.24,0-5.47-1.82-5.47-4.33s1.77-4.28,6.79-4.28h1.19v-.18c0-1.93-.91-2.51-2.94-2.51a5.53,5.53,0,0,0-4.34,1.57h-.12V17.06c0-1.52,1.37-3.35,5-3.35,3,0,5.77,1.42,5.77,6.14V23C124.23,25.88,122.11,27.88,119.06,27.88Zm1.85-6.18H119.7c-2.59,0-3.32.61-3.32,1.72s.86,1.7,2.35,1.7,2.18-.71,2.18-2.1Z"/><path class="a" d="M128.52,13a2,2,0,0,1-2-2,2,2,0,0,1,4,0A2,2,0,0,1,128.52,13Zm2.4,14.78c-2.63,0-4.08-1.49-4.08-4.26V14.27h1a2.22,2.22,0,0,1,2.43,2.54v6.38c0,1.37.58,1.8,2.08,1.8H133v.74C133,27.2,132.37,27.78,130.92,27.78Z"/><path class="a" d="M145.47,27.65A2.25,2.25,0,0,1,143,25.42V20c0-2.31-1-3.32-2.77-3.32-1.47,0-2.48,1.12-2.48,3.07v7.9h-1a2.21,2.21,0,0,1-2.39-2.23v-5.9c0-2.89,1.9-5.86,6.16-5.86a5.66,5.66,0,0,1,5.88,6v8Z"/><path class="a" d="M162,17.29a4.92,4.92,0,0,0-2-.41c-1.52,0-2.36.84-2.36,2.92v7.85h-.94c-1.52,0-2.48-.76-2.48-2.18V19.19c0-2.74,1.44-5.35,5-5.35,2.11,0,2.84,1.19,2.84,2.23v1.22Z"/><path class="a" d="M169.11,27.88h-.68c-3.24,0-5.48-1.82-5.48-4.33s1.78-4.28,6.8-4.28h1.19v-.18c0-1.93-.91-2.51-2.94-2.51a5.53,5.53,0,0,0-4.34,1.57h-.12V17.06c0-1.52,1.37-3.35,5-3.35,3,0,5.77,1.42,5.77,6.14V23C174.28,25.88,172.16,27.88,169.11,27.88ZM171,21.7h-1.21c-2.59,0-3.32.61-3.32,1.72s.86,1.7,2.35,1.7S171,24.41,171,23Z"/><path class="a" d="M178.57,13a2,2,0,0,1-2-2,2,2,0,0,1,4,0A2,2,0,0,1,178.57,13ZM181,27.78c-2.63,0-4.08-1.49-4.08-4.26V14.27h1a2.22,2.22,0,0,1,2.43,2.54v6.38c0,1.37.58,1.8,2.08,1.8H183v.74C183,27.2,182.42,27.78,181,27.78Z"/><path class="a" d="M195.52,27.65A2.25,2.25,0,0,1,193,25.42V20c0-2.31-1-3.32-2.77-3.32-1.47,0-2.48,1.12-2.48,3.07v7.9h-1a2.21,2.21,0,0,1-2.39-2.23v-5.9c0-2.89,1.9-5.86,6.16-5.86a5.66,5.66,0,0,1,5.88,6v8Z"/><path class="a" d="M209.5,15.42c3.59,0,5.65,2.88,5.65,6,0,3.59-2.06,6.45-5.92,6.45-3.59,0-5.65-2.86-5.65-6C203.58,18.3,205.64,15.42,209.5,15.42Zm-.27,2.66c-1.71,0-2.57,1.42-2.57,3.39,0,2.37.86,3.79,2.84,3.79,1.73,0,2.57-1.42,2.57-3.37C212.07,19.5,211.18,18.08,209.23,18.08Z"/><path class="a" d="M223.82,18.59a4.22,4.22,0,0,0-1.73-.36c-1.33,0-2.06.73-2.06,2.55v6.87h-.82c-1.33,0-2.17-.66-2.17-1.9v-5.5c0-2.4,1.26-4.68,4.41-4.68,1.84,0,2.48,1,2.48,1.95v1.07Z"/><path class="a" d="M234.61,28c-2.51,0-4.39-1.29-4.39-2.69V23.73h.13A6.85,6.85,0,0,0,234.46,25c1.67,0,2.48-.48,2.48-1.5,0-.78-.48-1.16-2.84-1.49-2.89-.41-4.28-1.55-4.28-3.63,0-2.56,2.3-4.74,5.8-4.74,3.09,0,4.36,1.6,4.36,2.92v1.29h-.12A6,6,0,0,0,236,16.6c-2.08,0-2.74.64-2.74,1.52,0,.69.41,1,2.74,1.35,2.84.45,4.36,1.7,4.36,3.88C240.31,26.23,238.28,28,234.61,28Z"/><path class="a" d="M253.56,27.65a2.25,2.25,0,0,1-2.48-2.23V20c0-2.31-1-3.32-2.76-3.32-1.47,0-2.49,1.12-2.49,3.07v7.9h-1a2.21,2.21,0,0,1-2.38-2.23v-5.9c0-2.89,1.9-5.86,6.16-5.86a5.66,5.66,0,0,1,5.88,6v8Z"/><path class="a" d="M263.4,13.66c4.1,0,6.46,3.3,6.46,6.92,0,4.11-2.36,7.38-6.77,7.38-4.1,0-6.46-3.27-6.46-6.9C256.63,17,259,13.66,263.4,13.66Zm-.31,3.05c-1.95,0-2.94,1.62-2.94,3.87,0,2.72,1,4.34,3.25,4.34,2,0,2.94-1.62,2.94-3.86C266.34,18.33,265.32,16.71,263.09,16.71Z"/><path class="a" d="M288.94,21.09a32.17,32.17,0,0,1-3.17,6.72h-.55A3,3,0,0,1,282.89,26a22.83,22.83,0,0,1-2.26-6.13,28,28,0,0,1-3.24,8h-.46A3.32,3.32,0,0,1,274.5,26a32.87,32.87,0,0,1-3.91-12h1.83a2,2,0,0,1,2,1.65,29.89,29.89,0,0,0,2.17,7.4,43.56,43.56,0,0,0,2.59-8.54h1.12a2.25,2.25,0,0,1,2.4,1.92A32.17,32.17,0,0,0,284.89,23a38.49,38.49,0,0,0,2.56-9.13h1.42c1,0,1.64.43,1.64,1.47A28.47,28.47,0,0,1,288.94,21.09Z"/><circle class="b" cx="18.37" cy="19.8" r="12.28"/><path class="a" d="M18.36,7.43a12.47,12.47,0,0,0-9.8,4.74,3.42,3.42,0,0,0,1-.23c.19-.08.29-.08.42.1a4.36,4.36,0,0,0,6.58.48c.16-.16.31-.33.47-.51l.18.16a3.25,3.25,0,0,0,5.26-.58.26.26,0,0,1,.31-.14,6.06,6.06,0,0,0,1.27.11,3.13,3.13,0,0,0,2.29-1.27A12.47,12.47,0,0,0,18.36,7.43Z"/><polygon class="c" points="7.63 22.2 10.8 19.03 13.61 21.03 18.41 16.32 22.76 20.39 25.03 18.31 30.1 22.3 29.14 25.58 28.35 27.16 24.24 30.68 19.59 31.63 8.43 26.56 7.63 22.2"/><path class="d" d="M18.53,7.35A12.5,12.5,0,1,0,30.91,19.86,12.56,12.56,0,0,0,18.53,7.35ZM8.72,25.25l-.08-.05,1.71-2.7c-.33-.05-.6.13-.93.05l1.15-2.39c.34-.7.34-.7,1-.26l1.46,1Zm19.54,1.22L24,25.79l-4.48,5.42c0-2.52.06-6.89.06-9.44l-1.08.82v-5.7c.54.51,1,.95,1.46,1.39C22.6,20.86,28.26,26.47,28.26,26.47Zm-2.94-5.65.43,1.69c-.1.08-.15,0-.2,0-.68-.65-1.34-1.3-2-1.94-.17-.16-.14-.24,0-.38.46-.39.91-.79,1.36-1.19.12-.1.22-.19.39,0l4.08,3.43s0,.07.1.19Zm4.31.57c-.36-.29-.71-.6-1.08-.89L25,17.58l-.51.51a.47.47,0,0,1-.16.19l-.23.2-.15.15h0c-.34.28-.67.58-1,.89s-.36.14-.55,0L19,16.2c-.51-.49-.64-.48-1.14,0-1.29,1.27-2.58,2.53-3.85,3.83-.27.27-.44.26-.71,0a8,8,0,0,0-1-.68.83.83,0,0,1-.17-.12l-1.08-.81a.57.57,0,0,1-.22,0,.3.3,0,0,0-.28.08L9.41,19.62l-1.09.94a.75.75,0,0,1-.15.16c-.34.28-.66.57-1,.87s-.31.12-.33-.13c-.05-.6-.09-1.2-.13-1.78a11.65,11.65,0,0,1,4.7-9.14A10.91,10.91,0,0,1,18.49,8.2a11.39,11.39,0,0,1,10.15,6.09,11.17,11.17,0,0,1,1.43,5.62c0,.44-.06.87-.08,1.31C30,21.5,29.87,21.59,29.63,21.39Z"/><path class="c" d="M13.63,14.82a9,9,0,0,0-1,2,.81.81,0,0,0-.05.27,1.1,1.1,0,0,0,.57,1.09.9.9,0,0,0,1-.07,1.08,1.08,0,0,0,.43-1.16A7.43,7.43,0,0,0,13.63,14.82Z"/><path class="c" d="M25.75,15.6l-.24.4-.92-.53-.17-.12a.64.64,0,0,1-.13-.15.86.86,0,0,1,.09.39v1.05h-.47v-1a1.27,1.27,0,0,1,0-.2.64.64,0,0,1,.06-.18l-.13.14-.16.11-.91.53-.24-.4.92-.53a.68.68,0,0,1,.4-.13l-.21,0a.58.58,0,0,1-.19-.1l-.92-.53.23-.4.92.53.17.12a1,1,0,0,1,.13.16,1.1,1.1,0,0,1-.08-.4v-1h.47v1a1.23,1.23,0,0,1,0,.2,1.21,1.21,0,0,1-.05.18.74.74,0,0,1,.12-.13l.16-.12.92-.52.23.39-.91.53-.18.1-.2,0a.65.65,0,0,1,.2,0,.76.76,0,0,1,.18.09Z"/></svg>